{"title":"Gravity 2013 NEWSOURCE CAM AC3 MURDER","uid":9230957,"size":1340639859,"categoryP":"video","categoryS":"movies","magnet":"?xt=urn:btih:288913ffdc7153f162c96f71e706fd045e944fd1&amp;dn=Gravity+2013+NEWSOURCE+CAM+AC3+MURDER&amp;tr=udp%3A%2F%2Ftracker.openbittorrent.com%3A80&amp;tr=udp%3A%2F%2Fopen.demonii.com%3A1337&amp;tr=udp%3A%2F%2Ftracker.coppersurfer.tk%3A6969&amp;tr=udp%3A%2F%2Fexodus.desync.com%3A6969","seeders":2,"leechers":0,"uploader":".BONE.","files":8,"time":1385068726,"description":"General\nSource : PiMP.......THANKS\nComplete name : Gravity 2013 NEWSOURCE CAM AC3 MURDER.mkv\nFormat : Matroska\nFormat version : Version 4 / Version 2\nFile size : 1.25 GiB\nDuration : 1h 24mn\nOverall bit rate : 2 124 Kbps\nEncoded date : UTC 2013-11-21 18:54:46\nWriting application : mkvmerge v6.3.0 ('You can't stop me!') built on Jun 28 2013 20:09:41\nWriting library : libebml v1.3.0 + libmatroska v1.4.0\n\nVideo\nID : 1\nFormat : AVC\nFormat/Info : Advanced Video Codec\nFormat profile : &lt;a class=&quot;__cf_email__&quot; href=&quot;/cdn-cgi/l/email-protection&quot; data-cfemail=&quot;c183a0b2a4ada8afa4818df2eff1&quot;&gt;[email&amp;#160;protected]&lt;/a&gt;&lt;script cf-hash='f9e31' type=&quot;text/javascript&quot;&gt;\n/* &lt;![CDATA[ */!function(){try{var t=&quot;currentScript&quot;in document?document.currentScript:function(){for(var t=document.getElementsByTagName(&quot;script&quot;),e=t.length;e--;)if(t[e].getAttribute(&quot;cf-hash&quot;))return t[e]}();if(t&amp;&amp;t.previousSibling){var e,r,n,i,c=t.previousSibling,a=c.getAttribute(&quot;data-cfemail&quot;);if(a){for(e=&quot;&quot;,r=parseInt(a.substr(0,2),16),n=2;a.length-n;n+=2)i=parseInt(a.substr(n,2),16)^r,e+=String.fromCharCode(i);e=document.createTextNode(e),c.parentNode.replaceChild(e,c)}}}catch(u){}}();/* ]]&gt; */&lt;/script&gt;\nFormat settings, CABAC : No\nFormat settings, ReFrames : 1 frame\nCodec ID : V_MPEG4/ISO/AVC\nDuration : 1h 24mn\nBit rate : 1 980 Kbps\nWidth : 960 pixels\nHeight : 400 pixels\nDisplay aspect ratio : 2.40:1\nFrame rate mode : Constant\nFrame rate : 25.000 fps\nColor space : YUV\nChroma subsampling : 4:2:0\nBit depth : 8 bits\nScan type : Progressive\nBits/(Pixel*Frame) : 0.206\nStream size : 1.13 GiB (90%)\nWriting library : x264 core\nDefault : Yes\nForced : No\n\nAudio\nID : 2\nFormat : AC-3\nFormat/Info : Audio Coding 3\nMode extension : CM (complete main)\nFormat settings, Endianness : Big\nCodec ID : A_AC3\nDuration : 1h 24mn\nBit rate mode : Constant\nBit rate : 160 Kbps\nChannel count : 6 channels\nChannel positions : Front: L C R, Side: L R, LFE\nSampling rate : 48.0 KHz\nBit depth : 16 bits\nCompression mode : Lossy\nStream size : 96.2 MiB (8%)\nDefault : Yes\nForced : No\n &lt;a href=&quot;\nhttp://s20.postimage.org/5iftijz3x/vlcsnap_2013_11_21_19h55m46s223.png&quot; rel=&quot;nofollow&quot; target=&quot;_NEW&quot;&gt;\nhttp://s20.postimage.org/5iftijz3x/vlcsnap_2013_11_21_19h55m46s223.png&lt;/a&gt; &lt;a href=&quot;\nhttp://s20.postimage.org/qe23tsvb1/vlcsnap_2013_11_21_19h57m19s135.png&quot; rel=&quot;nofollow&quot; target=&quot;_NEW&quot;&gt;\nhttp://s20.postimage.org/qe23tsvb1/vlcsnap_2013_11_21_19h57m19s135.png&lt;/a&gt; &lt;a href=&quot;\nhttp://s20.postimage.org/i7a42858d/vlcsnap_2013_11_21_18h57m55s72.png&quot; rel=&quot;nofollow&quot; target=&quot;_NEW&quot;&gt;\nhttp://s20.postimage.org/i7a42858d/vlcsnap_2013_11_21_18h57m55s72.png&lt;/a&gt;","torrent":{"xt":"urn:btih:288913ffdc7153f162c96f71e706fd045e944fd1","amp;dn":"Gravity+2013+NEWSOURCE+CAM+AC3+MURDER","amp;tr":["udp%3A%2F%2Ftracker.openbittorrent.com%3A80","udp%3A%2F%2Fopen.demonii.com%3A1337","udp%3A%2F%2Ftracker.coppersurfer.tk%3A6969","udp%3A%2F%2Fexodus.desync.com%3A6969"],"infoHash":"288913ffdc7153f162c96f71e706fd045e944fd1","infoHashBuffer":{"type":"Buffer","data":[40,137,19,255,220,113,83,241,98,201,111,113,231,6,253,4,94,148,79,209]},"announce":[],"urlList":[]}}